<svg xmlns="http://www.w3.org/2000/svg" version="1.1" xmlns:xlink="http://www.w3.org/1999/xlink" xmlns:svgjs="http://svgjs.dev/svgjs" width="135.467" height="135.46666"><svg width="135.467" height="135.46666" viewBox="0 0 135.466995 135.466995" version="1.1" id="SvgjsSvg1001" xmlns="http://www.w3.org/2000/svg" xmlns:svg="http://www.w3.org/2000/svg">
	<rect width="135.467" height="135.467" stroke="none" fill="#ece9d4" rx="15%"></rect>
	<path d="m141.48443 149.59982q0 10.12034-8.40054 16.60265-8.33439 6.48231-22.82037 6.48231-8.2021 0-15.081283-1.91824-6.813037-1.98438-11.443257-4.29949v-13.9568h.66146q5.886994 4.43178 13.096907 7.07762 7.209913 2.57969 13.824513 2.57969 8.2021 0 12.83232-2.64584 4.63022-2.64584 4.63022-8.33439 0-4.36564-2.51355-6.6146-2.51354-2.24897-9.65731-3.83647-2.64584-.59531-6.94533-1.38906-4.23334-.79376-7.73908-1.7198-9.723462-2.57969-13.824514-7.54064-4.034906-5.0271-4.034906-12.30316 0-4.56407 1.852088-8.59898 1.918234-4.0349 5.754702-7.20991 3.704175-3.108863 9.39273-4.894805 5.7547-1.852088 12.83232-1.852088 6.6146 0 13.36149 1.65365 6.81304 1.587504 11.31097 3.902613v13.29535h-.66146q-4.76251-3.50574-11.57555-5.887-6.81304-2.4474-13.36149-2.4474-6.81304 0-11.5094 2.64584-4.696369 2.57969-4.696369 7.73908 0 4.56407 2.844278 6.87918 2.778131 2.31511 8.995851 3.77033 3.4396.79375 7.67294 1.5875 4.29949.79375 7.14377 1.45521 8.66512 1.98438 13.36149 6.81304 4.69636 4.8948 4.69636 12.96461z" transform="translate(-44.8784 -66.223)" fill="#814910" stroke="none"></path>
</svg><style>@media (prefers-color-scheme: light) { :root { filter: none; } }
@media (prefers-color-scheme: dark) { :root { filter: none; } }
</style></svg>